<svg xmlns="http://www.w3.org/2000/svg" width="14" height="14" viewBox="0 0 14 14"><defs><style>.a{fill:#383c4c;stroke:rgba(0,0,0,0);stroke-miterlimit:10;}</style></defs><path class="a" d="M6.5,13A6.5,6.5,0,1,1,13,6.5,6.507,6.507,0,0,1,6.5,13ZM6.429,2.21c-.058,0-.116,0-.174.005A3.109,3.109,0,0,0,3.33,4.972a3.057,3.057,0,0,0,.483,2l2.31,3.589a.357.357,0,0,0,.6,0l2.31-3.589a3.032,3.032,0,0,0,.5-1.674,3.1,3.1,0,0,0-3.1-3.091ZM6.422,6.56A1.243,1.243,0,1,1,7.3,6.2,1.244,1.244,0,0,1,6.422,6.56Z" transform="translate(0.5 0.5)"/></svg>