<svg xmlns="http://www.w3.org/2000/svg" width="14.003" height="14.002" viewBox="0 0 14.003 14.002"><defs><style>.a{fill:#383c4c;stroke:rgba(0,0,0,0);stroke-miterlimit:10;}</style></defs><path class="a" d="M14703.5,1843a6.5,6.5,0,1,1,6.5-6.5A6.508,6.508,0,0,1,14703.5,1843Zm-2.089-7.395a.788.788,0,0,0-.8.768v2.61a.758.758,0,0,0,.232.539.815.815,0,0,0,.572.225h4.183a.786.786,0,0,0,.8-.764v-2.61a.788.788,0,0,0-.8-.768v-1.226a1.951,1.951,0,0,0-.65-1.443,2.127,2.127,0,0,0-1.443-.554.915.915,0,0,0-.1,0,2.069,2.069,0,0,0-1.989,2.049v.022a.4.4,0,0,0,.8,0v-.033a1.273,1.273,0,0,1,1.2-1.27.706.706,0,0,1,.088,0,1.32,1.32,0,0,1,.879.332,1.193,1.193,0,0,1,.41.9v1.226Zm2.089,2.688a.615.615,0,1,1,.643-.617A.63.63,0,0,1,14703.5,1838.294Z" transform="translate(-14696.498 -1829.499)"/></svg>