<svg xmlns="http://www.w3.org/2000/svg" width="15" height="15" viewBox="0 0 15 15"><defs><style>.a{fill:#383c4c;stroke:rgba(0,0,0,0);stroke-miterlimit:10;}</style></defs><path class="a" d="M7,14a7,7,0,1,1,7-7A7.008,7.008,0,0,1,7,14ZM4.815,3.419a.668.668,0,0,0-.477.2l-.045.045a2.061,2.061,0,0,0-.288,2.561,12.237,12.237,0,0,0,3.878,3.878,2.07,2.07,0,0,0,2.561-.288l.045-.045a.667.667,0,0,0-.09-1.03L9.092,7.826a.677.677,0,0,0-.866.075l-.057.057a.5.5,0,0,1-.364.153.511.511,0,0,1-.259-.071A4.239,4.239,0,0,1,6.071,6.565a.51.51,0,0,1,.082-.624l.057-.057a.674.674,0,0,0,.075-.865L5.369,3.712a.662.662,0,0,0-.494-.29l-.059,0Z" transform="translate(0.5 0.5)"/></svg>