<svg xmlns="http://www.w3.org/2000/svg" xmlns:xlink="http://www.w3.org/1999/xlink" width="14" height="14" viewBox="0 0 14 14"><defs><style>.a{fill:none;}.b{clip-path:url(#a);}.c{fill:#383c4c;}</style><clipPath id="a"><rect class="a" width="14" height="14"/></clipPath></defs><g class="b"><path class="c" d="M7,14a7,7,0,1,1,7-7A7.008,7.008,0,0,1,7,14ZM6.924,7A4.169,4.169,0,0,0,3.348,9.042a.873.873,0,0,0,.084.968,4.667,4.667,0,0,0,7.134,0,.87.87,0,0,0,.084-.968A4.169,4.169,0,0,0,7.075,7H6.924ZM7,2.334a1.9,1.9,0,1,0,1.9,1.9A1.9,1.9,0,0,0,7,2.334Z" transform="translate(0 0)"/></g></svg>