<svg xmlns="http://www.w3.org/2000/svg" width="102.732" height="102.732" viewBox="0 0 102.732 102.732"><defs><style>.a{fill:#fff;}.b{fill:#d2d2d2;}</style></defs><path class="a" d="M711.237,387.345l31.383-31.383a27.269,27.269,0,0,0,0-38.564l16.443-16.443a51.371,51.371,0,0,1-47.827,86.39Z" transform="translate(-671.377 -285.912)"/><path class="b" d="M6.978,17.751,1.083,10.727Q.576,9.865,0,9.034L21.779,0a51.493,51.493,0,0,1,4.247,40.451Z" transform="translate(74.387 26.211)"/><g transform="translate(36.418 36.421)"><path class="a" d="M725.2,377.4a14.945,14.945,0,1,0-.085,21.136A14.945,14.945,0,0,0,725.2,377.4Z" transform="translate(-699.643 -372.975)"/></g><path class="a" d="M736.139,281.761a27.19,27.19,0,0,0-20.133-7.972,11.552,11.552,0,0,1-8.571-3.31l-.288-.288a11.638,11.638,0,0,1,7.652-19.848,51.37,51.37,0,0,1,52.724,62.8Z" transform="translate(-666.092 -250.275)"/><path class="b" d="M711.227,556.153l11.5-11.5,3.621-3.621,7.884,15.127C724.82,557.518,720.078,557.608,711.227,556.153Z" transform="translate(-671.367 -454.723)"/><path class="a" d="M608.438,409.462l31.384,31.383a51.37,51.37,0,0,1-62.8-52.724,11.638,11.638,0,0,1,19.848-7.652l.288.288a11.552,11.552,0,0,1,3.31,8.571A27.19,27.19,0,0,0,608.438,409.462Z" transform="translate(-576.952 -339.415)"/></svg>