<svg xmlns="http://www.w3.org/2000/svg" xmlns:xlink="http://www.w3.org/1999/xlink" width="11.95" height="13.584" viewBox="0 0 11.95 13.584"><defs><style>.a{fill:none;}.b{clip-path:url(#a);}.c{fill:#0a1f44;}</style><clipPath id="a"><rect class="a" width="11.95" height="13.584"/></clipPath></defs><g class="b"><path class="c" d="M4.394,12.747a.529.529,0,0,1,0-.563.62.62,0,0,1,.525-.286H7.033a.62.62,0,0,1,.525.286.529.529,0,0,1,0,.563,1.912,1.912,0,0,1-3.162,0Zm6.636-1.7H.917a.931.931,0,0,1-.8-.441.794.794,0,0,1,.03-.864l.822-1.2a.811.811,0,0,0,.141-.4L1.413,3.97A4.477,4.477,0,0,1,6.25.007a4.483,4.483,0,0,1,4.3,4.071l.287,4.057a.806.806,0,0,0,.141.4l.832,1.209a.8.8,0,0,1,.029.865.929.929,0,0,1-.8.439Z" transform="translate(0)"/></g></svg>