<svg xmlns="http://www.w3.org/2000/svg" width="11.984" height="11.678" viewBox="0 0 11.984 11.678"><defs><style>.a{fill:#cfd6e2;}</style></defs><g transform="translate(-2.576 -2.581)"><g transform="translate(2.576 2.581)"><g transform="translate(0 0)"><path class="a" d="M100.359,93.126a.536.536,0,0,1-.253-.064l-3.113-1.669-3.113,1.669a.536.536,0,0,1-.574-.042.561.561,0,0,1-.217-.543l.595-3.535-2.519-2.5a.563.563,0,0,1-.138-.569.548.548,0,0,1,.44-.378l3.481-.516L96.5,81.758a.54.54,0,0,1,.977,0l1.557,3.216,3.481.516a.548.548,0,0,1,.44.378.563.563,0,0,1-.138.569l-2.519,2.5.595,3.535a.561.561,0,0,1-.217.543A.537.537,0,0,1,100.359,93.126Z" transform="translate(-91 -81.448)"/></g></g></g></svg>