<svg xmlns="http://www.w3.org/2000/svg" width="22" height="21" viewBox="0 0 22 21"><defs><style>.a{fill:#222b45;}.b{fill:#195c1e;stroke:#fff;}</style></defs><g transform="translate(-0.651 -0.646)"><ellipse class="a" cx="11" cy="10.5" rx="11" ry="10.5" transform="translate(0.651 0.646)"/><g transform="translate(4.327 3.524)"><g transform="translate(0 0)"><path class="b" d="M102.224,95.181a.653.653,0,0,1-.3-.075l-3.734-1.963-3.734,1.963a.653.653,0,0,1-.948-.689l.713-4.157L91.2,87.316a.653.653,0,0,1,.362-1.114l4.174-.607L97.6,81.812a.653.653,0,0,1,1.172,0l1.867,3.783,4.174.607a.653.653,0,0,1,.362,1.114l-3.021,2.944.713,4.157a.653.653,0,0,1-.644.764Z" transform="translate(-91 -81.448)"/></g></g></g></svg>