<svg xmlns="http://www.w3.org/2000/svg" xmlns:xlink="http://www.w3.org/1999/xlink" width="11.961" height="14" viewBox="0 0 11.961 14"><defs><style>.a{fill:url(#a);}.b{fill:#fed433;}.c{fill:url(#b);}.d{fill:#4262ba;}.e{fill:#d80005;}.f{fill:url(#c);}.g{fill:#289862;}.h{fill:url(#d);}</style><linearGradient id="a" x1="0.619" y1="0.328" x2="0.219" y2="0.668" gradientUnits="objectBoundingBox"><stop offset="0" stop-color="#ffd833"/><stop offset="1" stop-color="#f2b631"/></linearGradient><linearGradient id="b" x1="0.578" y1="0.38" x2="0.228" y2="0.729" gradientUnits="objectBoundingBox"><stop offset="0" stop-color="#4166bf"/><stop offset="1" stop-color="#4256ac"/></linearGradient><linearGradient id="c" x1="0.515" y1="0.404" x2="0.196" y2="0.661" gradientUnits="objectBoundingBox"><stop offset="0" stop-color="#28a265"/><stop offset="1" stop-color="#28895e"/></linearGradient><linearGradient id="d" x1="0.583" y1="0.417" x2="0.216" y2="0.784" gradientUnits="objectBoundingBox"><stop offset="0" stop-color="#ebeff0"/><stop offset="1" stop-color="#cbd0e4"/></linearGradient></defs><g transform="translate(0)"><path class="a" d="M40.138,8.794a5.9,5.9,0,0,1,11.795.043,5.912,5.912,0,0,1-.515,2.671,6.007,6.007,0,0,1-2.469,2.614q-.192.107-.375.228A5.338,5.338,0,0,0,47.015,15.8l-.553.814a.516.516,0,0,1-.853,0l-.579-.851a5.482,5.482,0,0,0-1.887-1.707,5.779,5.779,0,0,1-3.005-5.257Z" transform="translate(-40.055 -2.917)"/><ellipse class="b" cx="4.233" cy="4.233" rx="4.233" ry="4.233" transform="translate(1.747 1.747)"/><g transform="translate(0.549 0.595)"><path class="c" d="M237.712,24.548l1.358,1.358,1.7,1.7,2.843-2.843-1.743-1.743L240.53,21.68a5.966,5.966,0,0,0-2.818,2.868Z" transform="translate(-237.712 -21.68)"/><path class="d" d="M237.711,73.551l1.7,1.7,2.843-2.843-1.743-1.743A4.243,4.243,0,0,0,237.711,73.551Z" transform="translate(-236.353 -69.325)"/></g><g transform="translate(8.392 2.899)"><path class="e" d="M37.141,108.34l1.629,1.629,1.342,1.342a6.005,6.005,0,0,0-.251-5.691Z" transform="translate(-37.141 -105.62)"/><path class="e" d="M100.782,154.147l1.629,1.629a4.253,4.253,0,0,0-.2-3.056Z" transform="translate(-100.782 -151.427)"/></g><g transform="translate(3.368 0)"><path class="e" d="M68.052.595,69.4,1.94l3.679,3.68L75.8,2.9a6,6,0,0,0-7.745-2.3Z" transform="translate(-68.052 0)"/><path class="e" d="M115.162,63.833l3.679,3.68,1.427-1.427a4.24,4.24,0,0,0-5.106-2.252Z" transform="translate(-113.817 -61.893)"/></g><g transform="translate(0 3.463)"><path class="f" d="M168.068,136.456l-.579-.851A5.482,5.482,0,0,0,165.6,133.9a6,6,0,0,1-2.539-7.753l7.97,7.97a5.623,5.623,0,0,0-1.559,1.528l-.553.814a.516.516,0,0,1-.853,0Z" transform="translate(-162.514 -126.145)"/><path class="g" d="M216.993,181.009a4.237,4.237,0,0,1-4.073-5.393l5.232,5.232A4.236,4.236,0,0,1,216.993,181.009Z" transform="translate(-211.013 -174.258)"/></g><ellipse class="h" cx="3.235" cy="3.235" rx="3.235" ry="3.235" transform="translate(2.746 2.746)"/></g></svg>