<svg xmlns="http://www.w3.org/2000/svg" xmlns:xlink="http://www.w3.org/1999/xlink" width="12.694" height="17.598" viewBox="0 0 12.694 17.598"><defs><style>.a{fill:none;}.b{clip-path:url(#a);}.c{fill:#0a1f44;}</style><clipPath id="a"><rect class="a" width="12.694" height="17.598"/></clipPath></defs><g class="b"><path class="c" d="M10.931,17.6H1.763a1.717,1.717,0,0,1-1.247-.537A1.882,1.882,0,0,1,0,15.765V9.535A1.8,1.8,0,0,1,1.763,7.7h7.4V4.77a3,3,0,0,0-.893-2.148,2.751,2.751,0,0,0-1.925-.791c-.065,0-.131,0-.2.007A2.97,2.97,0,0,0,3.526,4.873v.08a.9.9,0,0,1-.882.916.9.9,0,0,1-.881-.916V4.905A4.786,4.786,0,0,1,6.125.006C6.2,0,6.273,0,6.347,0A4.473,4.473,0,0,1,9.51,1.316a4.879,4.879,0,0,1,1.42,3.454V7.7a1.8,1.8,0,0,1,1.763,1.832v6.231A1.8,1.8,0,0,1,10.931,17.6ZM6.347,11.184a1.467,1.467,0,1,0,1.41,1.466A1.441,1.441,0,0,0,6.347,11.184Z" transform="translate(0 0)"/></g></svg>