<svg xmlns="http://www.w3.org/2000/svg" xmlns:xlink="http://www.w3.org/1999/xlink" width="7.545" height="7.545" viewBox="0 0 7.545 7.545"><defs><style>.a{fill:none;}.b{clip-path:url(#a);}.c{fill:#fff;}</style><clipPath id="a"><rect class="a" width="7.545" height="7.545"/></clipPath></defs><g class="b"><path class="c" d="M.651.266.7.218a.718.718,0,0,1,1.11.1L2.8,1.724a.727.727,0,0,1-.081.932l-.061.061a.549.549,0,0,0-.088.672A4.55,4.55,0,0,0,4.156,4.978a.549.549,0,0,0,.672-.088l.061-.061a.727.727,0,0,1,.932-.081l1.409.988a.718.718,0,0,1,.1,1.11l-.048.048a2.23,2.23,0,0,1-2.76.311A13.107,13.107,0,0,1,.341,3.026,2.23,2.23,0,0,1,.651.266Z" transform="translate(0 0)"/></g></svg>