<svg xmlns="http://www.w3.org/2000/svg" width="21.016" height="21.516" viewBox="0 0 21.016 21.516"><defs><style>.a{fill:#195c1e;stroke:#fff;}</style></defs><g transform="translate(0)"><g transform="translate(0 0)"><path d="M20.547,8.063l-1.93-.474c-.091-.25-.2-.5-.314-.749l1.005-1.676a.615.615,0,0,0-.093-.752L16.6,1.8a.615.615,0,0,0-.752-.093L14.175,2.713c-.248-.118-.5-.223-.749-.314L12.953.469a.616.616,0,0,0-.6-.469H8.661a.616.616,0,0,0-.6.469L7.589,2.4c-.25.091-.5.2-.749.314L5.165,1.708a.615.615,0,0,0-.752.093L1.8,4.413a.615.615,0,0,0-.093.752L2.713,6.84c-.118.248-.223.5-.314.749l-1.93.474a.616.616,0,0,0-.469.6v3.694a.616.616,0,0,0,.469.6l1.93.474c.091.25.2.5.314.749L1.708,15.851A.615.615,0,0,0,1.8,16.6l2.612,2.612a.615.615,0,0,0,.752.093L6.84,18.3c.248.118.5.223.749.314l.456,1.858.018.072a.616.616,0,0,0,.6.469l1.97-1.97,1.724,1.97a.616.616,0,0,0,.6-.469l.018-.072.456-1.858c.25-.091.5-.2.749-.314l1.676,1.005a.615.615,0,0,0,.752-.093L19.215,16.6a.615.615,0,0,0,.093-.752L18.3,14.175c.118-.248.223-.5.314-.749l1.93-.474a.616.616,0,0,0,.469-.6V8.661a.616.616,0,0,0-.469-.6Z" transform="translate(0 0)"/></g><g transform="translate(8.045 14.459)"><path class="a" d="M200.31,352.25h-3.694a.616.616,0,0,0-.616.616v5.4l.018.072a.616.616,0,0,0,.6.469h3.694a.616.616,0,0,0,.6-.469l.018-.072v-5.4A.616.616,0,0,0,200.31,352.25Z" transform="translate(-196 -352.25)"/></g><g transform="translate(4.967 5.326)"><path class="a" d="M126.541,140.478a5.542,5.542,0,0,1-2.079-10.678.616.616,0,0,1,.847.57v4.237l1.231.821,1.231-.821V130.37a.616.616,0,0,1,.847-.571,5.541,5.541,0,0,1-2.079,10.678Zm1.847-5.541h0Z" transform="translate(-121 -129.755)"/></g></g></svg>