<svg xmlns="http://www.w3.org/2000/svg" width="11.929" height="9.695" viewBox="0 0 11.929 9.695"><defs><style>.a{fill:#29a9e1;}</style></defs><path class="a" d="M0,8.595a6.927,6.927,0,0,0,3.752,1.1,6.922,6.922,0,0,0,6.956-7.28,4.967,4.967,0,0,0,1.221-1.267,4.886,4.886,0,0,1-1.406.385A2.449,2.449,0,0,0,11.6.179a4.911,4.911,0,0,1-1.554.594A2.449,2.449,0,0,0,5.875,3,6.946,6.946,0,0,1,.831.448a2.45,2.45,0,0,0,.758,3.268A2.436,2.436,0,0,1,.479,3.409,2.45,2.45,0,0,0,2.442,5.84a2.455,2.455,0,0,1-1.1.042,2.449,2.449,0,0,0,2.286,1.7A4.918,4.918,0,0,1,0,8.595"/></svg>