<svg xmlns="http://www.w3.org/2000/svg" width="126" height="125.999" viewBox="0 0 126 125.999"><defs><style>.a{fill:#195c1e;}.b{fill:#d80005;}.c{fill:#004105;}.d{fill:#070606;}</style></defs><g transform="translate(-576.952 -250.275)"><g transform="translate(576.952 250.275)"><path class="a" d="M711.237,406.912l38.491-38.491a33.445,33.445,0,0,0,0-47.3L769.9,300.955a63.006,63.006,0,0,1-58.659,105.957Z" transform="translate(-662.349 -282.504)"/><g transform="translate(44.667 44.67)"><path class="a" d="M730.986,378.4a18.33,18.33,0,1,0-.1,25.923A18.33,18.33,0,0,0,730.986,378.4Z" transform="translate(-699.643 -372.975)"/></g><path class="b" d="M743.482,288.893a33.348,33.348,0,0,0-24.693-9.777,14.169,14.169,0,0,1-10.512-4.059l-.354-.353a14.274,14.274,0,0,1,9.385-24.344,63,63,0,0,1,64.665,77.025Z" transform="translate(-657.569 -250.275)"/><path class="c" d="M711.227,559.579l14.107-14.107,4.441-4.442,9.67,18.553C727.9,561.252,722.083,561.363,711.227,559.579Z" transform="translate(-662.339 -435.175)"/><path class="d" d="M615.57,416.8,654.061,455.3a63,63,0,0,1-77.025-64.665,14.273,14.273,0,0,1,24.344-9.385l.354.354a14.169,14.169,0,0,1,4.059,10.512A33.348,33.348,0,0,0,615.57,416.8Z" transform="translate(-576.952 -330.892)"/></g></g></svg>