<svg xmlns="http://www.w3.org/2000/svg" width="19.367" height="19.367" viewBox="0 0 19.367 19.367"><defs><style>.a{fill:#fff;}</style></defs><path class="a" d="M4.292,144.741l-.674,2.517-2.464.052a9.7,9.7,0,0,1-.071-9.042h0l2.194.4.961,2.18a5.779,5.779,0,0,0,.054,3.891Z" transform="translate(0 -133.038)"/><path class="a" d="M270.929,208.176a9.68,9.68,0,0,1-3.452,9.36h0l-2.763-.141-.391-2.441a5.771,5.771,0,0,0,2.483-2.947h-5.178v-3.831h9.3Z" transform="translate(-251.732 -200.302)"/><path class="a" d="M45.1,314.94h0a9.686,9.686,0,0,1-14.591-2.962l3.138-2.569a5.759,5.759,0,0,0,8.3,2.949Z" transform="translate(-29.355 -297.705)"/><path class="a" d="M43.405,2.229,40.268,4.8a5.758,5.758,0,0,0-8.489,3.015L28.625,5.23h0a9.685,9.685,0,0,1,14.781-3Z" transform="translate(-27.541)"/></svg>